HIERARCHY
ROOT Pelvis
{
	OFFSET 0.000000 0.000000 0.000000
	CHANNELS 6 Xposition Yposition Zposition Xrotation Yrotation Zrotation
	JOINT LeftUpLeg_virtual
	{
		OFFSET 0.000000 0.000000 0.000000
		CHANNELS 3 Xrotation Yrotation Zrotation
		JOINT LeftUpLeg
		{
			OFFSET 8.479700 -4.795502 -0.379100
			CHANNELS 3 Xrotation Yrotation Zrotation
			JOINT LeftLeg
			{
				OFFSET 0.024144 -32.555107 0.112900
				CHANNELS 3 Xrotation Yrotation Zrotation
				JOINT LeftFoot
				{
					OFFSET -0.024144 -32.638630 -3.012600
					CHANNELS 3 Xrotation Yrotation Zrotation
					JOINT LeftToeBase
					{
						OFFSET 0.970200 -13.225400 11.864200
						CHANNELS 3 Xrotation Yrotation Zrotation
						End Site
						{
							OFFSET 0 0 0
						}
					}
				}
			}
		}
	}
	JOINT RightUpLeg_virtual
	{
		OFFSET 0.000000 0.000000 0.000000
		CHANNELS 3 Xrotation Yrotation Zrotation
		JOINT RightUpLeg
		{
			OFFSET -8.479700 -4.795502 -0.379100
			CHANNELS 3 Xrotation Yrotation Zrotation
			JOINT RightLeg
			{
				OFFSET -0.023144 -32.555092 0.112900
				CHANNELS 3 Xrotation Yrotation Zrotation
				JOINT RightFoot
				{
					OFFSET 0.023144 -32.638641 -3.012700
					CHANNELS 3 Xrotation Yrotation Zrotation
					JOINT RightToeBase
					{
						OFFSET -0.970200 -13.225400 11.864200
						CHANNELS 3 Xrotation Yrotation Zrotation
						End Site
						{
							OFFSET 0 0 0
						}
					}
				}
			}
		}
	}
	JOINT Hips_virtual
	{
		OFFSET 0.000000 0.000000 0.000000
		CHANNELS 3 Xrotation Yrotation Zrotation
		JOINT Hips
		{
			OFFSET -0.000000 -0.000000 -0.000000
			CHANNELS 3 Xrotation Yrotation Zrotation
			JOINT Spine
			{
				OFFSET 0.000000 7.722000 1.166200
				CHANNELS 3 Xrotation Yrotation Zrotation
				JOINT Spine1
				{
					OFFSET 0.000000 12.024101 0.248800
					CHANNELS 3 Xrotation Yrotation Zrotation
					JOINT Spine2
					{
						OFFSET 0.000000 11.502998 -0.491200
						CHANNELS 3 Xrotation Yrotation Zrotation
						JOINT Neck_virtual
						{
							OFFSET 0.000000 0.000000 0.000000
							CHANNELS 3 Xrotation Yrotation Zrotation
							JOINT Neck
							{
								OFFSET 0.000000 18.430702 -3.123100
								CHANNELS 3 Xrotation Yrotation Zrotation
								JOINT Head
								{
									OFFSET 0.000000 9.051102 1.034000
									CHANNELS 3 Xrotation Yrotation Zrotation
									End Site
									{
										OFFSET 0 0 0
									}
								}
							}
						}
						JOINT LeftShoulder_virtual
						{
							OFFSET 0.000000 0.000000 0.000000
							CHANNELS 3 Xrotation Yrotation Zrotation
							JOINT LeftShoulder
							{
								OFFSET 6.197800 13.665199 -4.064700
								CHANNELS 3 Xrotation Yrotation Zrotation
								JOINT LeftArm
								{
									OFFSET 7.778100 -0.187103 -1.709300
									CHANNELS 3 Xrotation Yrotation Zrotation
									JOINT LeftForeArm
									{
										OFFSET 22.049376 0.000000 0.000000
										CHANNELS 3 Xrotation Yrotation Zrotation
										JOINT LeftHand
										{
											OFFSET 23.009392 0.000000 0.000000
											CHANNELS 3 Xrotation Yrotation Zrotation
											End Site
											{
												OFFSET 0 0 0
											}
										}
									}
								}
							}
						}
						JOINT RightShoulder_virtual
						{
							OFFSET 0.000000 0.000000 0.000000
							CHANNELS 3 Xrotation Yrotation Zrotation
							JOINT RightShoulder
							{
								OFFSET -6.197800 13.665199 -4.064700
								CHANNELS 3 Xrotation Yrotation Zrotation
								JOINT RightArm
								{
									OFFSET -7.778100 -0.187103 -1.709300
									CHANNELS 3 Xrotation Yrotation Zrotation
									JOINT RightForeArm
									{
										OFFSET -22.049376 0.000000 0.000000
										CHANNELS 3 Xrotation Yrotation Zrotation
										JOINT RightHand
										{
											OFFSET -23.009392 0.000000 0.000000
											CHANNELS 3 Xrotation Yrotation Zrotation
											End Site
											{
												OFFSET 0 0 0
											}
										}
									}
								}
							}
						}
					}
				}
			}
		}
	}
}
MOTION
Frames: 12
Frame Time: 0.03333333
-0.250042 70.702049 0.244968 0.000000 0.000000 0.000000 11.695789 -49.489543 11.290272 -64.578530 28.127882 42.220941 45.036061 -20.081192 3.175740 2.545513 0.952088 -10.119427 0.000000 0.000000 0.000000 11.695789 -49.489543 11.290272 -33.975485 -0.459122 -24.258137 53.259599 1.997578 -6.750468 -26.565404 -2.745283 24.293525 0.000000 0.000000 0.000000 11.695789 -49.489543 11.290272 0.000000 -0.000001 0.000000 10.973357 2.836696 -2.050358 6.100707 5.566533 -4.284680 0.000000 0.000000 0.000000 -5.786922 6.328134 -3.046180 2.318913 9.363324 -0.265303 0.000000 0.000000 0.000000 -5.786922 6.328134 -3.046180 -1.875336 -16.181741 -2.870472 -10.644678 2.164765 -45.510633 -22.862381 -25.786273 -15.871679 0.000000 0.000000 0.000000 -5.786922 6.328134 -3.046180 -5.074768 24.344980 1.482926 6.642460 -34.735016 57.610419 -21.032061 44.833871 19.961749 0.000000 0.000000 0.000000 
-0.267186 70.754272 0.141237 0.000000 0.000000 0.000000 11.497787 -49.796785 11.073848 -64.347923 28.154687 42.451627 44.742739 -20.010813 3.161672 2.687251 0.965942 -10.268128 0.000000 0.000000 0.000000 11.497787 -49.796785 11.073848 -33.976325 -0.559586 -24.097411 53.223662 2.164965 -6.739249 -26.487327 -2.553281 24.103026 0.000000 0.000000 0.000000 11.497787 -49.796785 11.073848 0.000000 -0.000001 0.000000 10.952057 2.836627 -2.059332 5.917135 5.588677 -4.389562 0.000000 0.000000 0.000000 -5.960385 6.358697 -3.163037 2.261345 9.594040 -0.194441 0.000000 0.000000 0.000000 -5.960385 6.358697 -3.163037 -1.850130 -16.049196 -2.794400 -9.956437 2.817351 -45.285916 -23.315168 -27.943281 -17.248413 0.000000 0.000000 0.000000 -5.960385 6.358697 -3.163037 -5.082248 24.342379 1.499009 5.825094 -34.063796 57.690161 -20.478449 43.293967 19.040923 0.000000 0.000000 0.000000 
-0.289668 70.807274 0.044022 0.000000 0.000000 0.000000 11.363340 -50.142874 10.910813 -64.143399 28.192164 42.719367 44.448132 -19.936873 3.134482 2.813595 0.989676 -10.425193 0.000000 0.000000 0.000000 11.363340 -50.142874 10.910813 -34.018628 -0.639362 -23.931924 53.181260 2.349537 -6.722123 -26.403292 -2.346590 23.905167 0.000000 0.000000 0.000000 11.363340 -50.142874 10.910813 0.000000 -0.000001 0.000000 10.928111 2.835634 -2.057868 5.754454 5.620921 -4.465463 0.000000 0.000000 0.000000 -6.114665 6.395243 -3.246985 2.473463 9.737927 -0.469675 0.000000 0.000000 0.000000 -6.114665 6.395243 -3.246985 -1.856187 -16.125032 -2.793417 -9.304242 3.610402 -44.990606 -23.777466 -29.920702 -18.575198 0.000000 0.000000 0.000000 -6.114665 6.395243 -3.246985 -5.081653 24.149920 1.470715 7.290167 -35.178951 57.904500 -21.255088 45.591164 20.253089 0.000000 0.000000 0.000000 
-0.315837 70.861275 -0.050694 0.000000 0.000000 0.000000 11.217104 -50.472226 10.773041 -63.867917 28.240174 42.874873 44.144681 -19.817036 3.171247 2.932494 1.032277 -10.634114 0.000000 0.000000 0.000000 11.217104 -50.472226 10.773041 -34.047554 -0.702161 -23.801845 53.145473 2.527001 -6.705972 -26.327898 -2.150401 23.714820 0.000000 0.000000 0.000000 11.217104 -50.472226 10.773041 0.000000 0.000004 0.000000 10.917587 2.822861 -2.065611 5.661718 5.628863 -4.526593 0.000000 0.000000 0.000000 -6.202369 6.409828 -3.316672 2.263844 9.977095 -0.273081 0.000000 0.000000 0.000000 -6.202369 6.409828 -3.316672 -1.837234 -16.093985 -2.699866 -8.760455 4.176577 -44.764968 -24.203699 -31.576873 -19.708431 0.000000 0.000000 0.000000 -6.202369 6.409828 -3.316672 -5.039715 24.119903 1.323477 8.594043 -36.353958 58.117055 -22.083523 47.698455 21.417713 0.000000 0.000000 0.000000 
-0.347356 70.915039 -0.138258 0.000000 0.000000 0.000000 11.167332 -50.819661 10.707371 -63.660068 28.298741 43.078123 43.842038 -19.715560 3.178293 3.044362 1.084548 -10.828562 0.000000 0.000000 0.000000 11.167332 -50.819661 10.707371 -34.129735 -0.744898 -23.655978 53.100575 2.705875 -6.689115 -26.246732 -1.953023 23.525683 0.000000 0.000000 0.000000 11.167332 -50.819661 10.707371 0.000000 0.000002 0.000000 10.897837 2.808194 -2.056478 5.549814 5.637692 -4.562776 0.000000 0.000000 0.000000 -6.308808 6.419473 -3.362155 2.157814 10.267391 -0.535474 0.000000 0.000000 0.000000 -6.308808 6.419473 -3.362155 -1.847866 -16.070636 -2.774187 -8.282018 4.767134 -44.394228 -24.638249 -33.133791 -20.826538 0.000000 0.000000 0.000000 -6.308808 6.419473 -3.362155 -4.969655 24.003419 1.112969 9.818340 -37.442397 58.296313 -23.000382 49.695944 22.598063 0.000000 0.000000 0.000000 
-0.381601 70.969185 -0.224453 0.000000 0.000000 0.000000 11.109190 -51.154005 10.669762 -63.410083 28.385868 43.220512 43.522826 -19.594534 3.206010 3.157967 1.138064 -11.040255 0.000000 0.000000 0.000000 11.109190 -51.154005 10.669762 -34.204317 -0.768631 -23.544109 53.065714 2.879121 -6.673335 -26.173640 -1.764319 23.343148 0.000000 0.000000 0.000000 11.109190 -51.154005 10.669762 0.000000 -0.000001 0.000000 10.894904 2.783216 -2.066874 5.492959 5.620206 -4.582158 0.000000 0.000000 0.000000 -6.365354 6.406197 -3.392835 1.889076 10.469517 -0.428199 0.000000 0.000000 0.000000 -6.365354 6.406197 -3.392835 -1.830500 -16.079987 -2.636737 -7.942261 5.171097 -44.244330 -24.969177 -34.234906 -21.606496 0.000000 0.000000 0.000000 -6.365354 6.406197 -3.392835 -4.911009 23.914690 0.934869 10.894919 -38.569289 58.328934 -24.094848 51.710720 23.924997 0.000000 0.000000 0.000000 
-0.422239 71.022057 -0.303942 0.000000 0.000000 0.000000 11.202592 -51.545802 10.752915 -63.254197 28.488893 43.454329 43.201452 -19.475467 3.175793 3.260411 1.196944 -11.233432 0.000000 0.000000 0.000000 11.202592 -51.545802 10.752915 -34.378500 -0.753591 -23.407844 53.027656 3.071082 -6.656003 -26.089460 -1.558655 23.153173 0.000000 0.000000 0.000000 11.202592 -51.545802 10.752915 0.000000 0.000000 0.000000 10.872789 2.763982 -2.066767 5.370467 5.615223 -4.602944 0.000000 0.000000 0.000000 -6.485334 6.402642 -3.425195 1.587708 10.749026 -0.621677 0.000000 0.000000 0.000000 -6.485334 6.402642 -3.425195 -1.832328 -15.909969 -2.693249 -7.601335 5.440250 -43.854548 -25.343801 -35.396417 -22.608164 0.000000 0.000000 0.000000 -6.485334 6.402642 -3.425195 -4.851214 23.775675 0.768369 11.890560 -39.683276 58.329454 -25.251472 53.552703 25.231692 0.000000 0.000000 0.000000 
-0.464095 71.074707 -0.383133 0.000000 0.000000 0.000000 11.278072 -51.907245 10.854326 -63.046580 28.609099 43.603815 42.865331 -19.337654 3.174345 3.367602 1.261753 -11.446282 0.000000 0.000000 0.000000 11.278072 -51.907245 10.854326 -34.534980 -0.725216 -23.305977 53.000386 3.248950 -6.640542 -26.015327 -1.368983 22.973650 0.000000 0.000000 0.000000 11.278072 -51.907245 10.854326 0.000000 0.000002 0.000000 10.848691 2.740972 -2.091473 5.307898 5.568417 -4.614025 0.000000 0.000000 0.000000 -6.550479 6.363043 -3.445771 1.398738 10.922395 -0.342475 0.000000 0.000000 0.000000 -6.550479 6.363043 -3.445771 -1.767740 -15.863283 -2.307961 -7.275243 5.775644 -44.050916 -25.624524 -36.258749 -23.016090 0.000000 0.000000 0.000000 -6.550479 6.363043 -3.445771 -4.768603 23.636271 0.587990 12.616849 -40.785296 58.199974 -26.477961 55.251968 26.541072 0.000000 0.000000 0.000000 
-0.503170 71.127190 -0.459934 0.000000 0.000000 0.000000 11.330776 -52.297686 10.914049 -62.838690 28.711889 43.786956 42.552632 -19.196448 3.182647 3.461272 1.331635 -11.663608 0.000000 0.000000 0.000000 11.330776 -52.297686 10.914049 -34.677796 -0.714838 -23.183243 52.960822 3.443638 -6.623135 -25.931228 -1.163842 22.787355 0.000000 0.000000 0.000000 11.330776 -52.297686 10.914049 0.000001 0.000001 -0.000000 10.842780 2.725917 -2.083503 5.287548 5.515838 -4.597274 0.000000 0.000000 0.000000 -6.569711 6.308098 -3.437968 1.078288 11.188305 -0.459418 0.000000 0.000000 0.000000 -6.569711 6.308098 -3.437968 -1.778187 -15.995523 -2.308535 -6.990177 6.173953 -43.710923 -25.996624 -37.298492 -23.847646 0.000000 0.000000 0.000000 -6.569711 6.308098 -3.437968 -4.645108 23.425693 0.308006 13.145915 -41.827532 57.974810 -27.628457 56.724711 27.655060 0.000000 0.000000 0.000000 
-0.541120 71.179413 -0.537424 0.000000 0.000000 0.000000 11.359778 -52.700070 10.970225 -62.587216 28.823853 43.921118 42.303268 -20.031447 3.167994 3.547608 2.423738 -11.885771 0.000000 0.000000 0.000000 11.359778 -52.700070 10.970225 -34.812071 -0.698326 -23.075625 52.927843 3.647250 -6.605213 -25.847847 -0.952576 22.599100 0.000000 0.000000 0.000000 11.359778 -52.700070 10.970225 0.000000 -0.000001 0.000000 10.844916 2.707459 -2.075601 5.321893 5.442604 -4.578766 0.000000 0.000000 0.000000 -6.534548 6.233423 -3.428596 0.624712 11.500067 -0.562081 0.000000 0.000000 0.000000 -6.534548 6.233423 -3.428596 -1.748558 -15.816275 -2.194059 -6.784383 6.134510 -43.362723 -26.286763 -38.066632 -24.621223 0.000000 0.000000 0.000000 -6.534548 6.233423 -3.428596 -4.487503 23.289439 -0.121706 13.590676 -42.905111 57.810632 -28.332152 57.726717 28.097943 0.000000 0.000000 0.000000 
-0.579171 71.229813 -0.614704 0.000000 0.000000 0.000000 11.414431 -53.132875 11.064674 -62.336541 28.953466 44.090326 41.984466 -19.866816 3.175539 3.634159 2.514544 -12.121059 0.000000 0.000000 0.000000 11.414431 -53.132875 11.064674 -34.973786 -0.661441 -22.975853 52.906065 3.865837 -6.587802 -25.762818 -0.729901 22.406494 0.000000 0.000000 0.000000 11.414431 -53.132875 11.064674 0.000000 0.000000 0.000000 10.849839 2.689148 -2.069498 5.371033 5.355681 -4.571353 0.000000 0.000000 0.000000 -6.482939 6.146440 -3.429149 0.189756 11.833654 -0.755542 0.000000 0.000000 0.000000 -6.482939 6.146440 -3.429149 -1.756436 -15.966127 -2.165175 -6.645646 6.427185 -42.907033 -26.587232 -38.828826 -25.272038 0.000000 0.000000 0.000000 -6.482939 6.146440 -3.429149 -4.319644 23.154949 -0.587316 13.881951 -43.939806 57.597209 -28.818139 58.482054 28.215559 0.000000 0.000000 0.000000 
-0.616901 71.278641 -0.694818 0.000000 0.000000 0.000000 11.473594 -53.610705 11.202009 -62.015242 29.099427 44.194872 41.662060 -19.650842 3.228961 3.709176 2.642111 -12.410198 0.000000 0.000000 0.000000 11.473594 -53.610705 11.202009 -35.162271 -0.593204 -22.903959 52.907526 4.110552 -6.568971 -25.678596 -0.486727 22.204016 0.000000 0.000000 0.000000 11.473594 -53.610705 11.202009 0.000000 -0.000004 0.000000 10.854022 2.663496 -2.078669 5.464773 5.256864 -4.594123 0.000000 0.000000 0.000000 -6.387148 6.055203 -3.459007 -0.297434 12.147147 -0.854559 0.000000 0.000000 0.000000 -6.387148 6.055203 -3.459007 -1.722000 -15.637115 -2.060675 -6.662528 6.316288 -42.468136 -26.816409 -39.389619 -25.688698 0.000000 0.000000 0.000000 -6.387148 6.055203 -3.459007 -4.169059 22.925472 -0.972686 13.728998 -44.790086 57.036587 -29.274211 59.122964 28.287473 0.000000 0.000000 0.000000 
